/vscmnt/brussel_pixiu_data/_data_brussel/112/vsc11236/PredSimResults/SUBJ09_gait1422_tracking/SUBJ09_gait1422_11453296.mot
version=1
nRows=11
nColumns=50
inDegrees=yes
endheader
                time	         pelvis_tilt	         pelvis_list	     pelvis_rotation	           pelvis_tx	           pelvis_ty	           pelvis_tz	       hip_flexion_r	     hip_adduction_r	      hip_rotation_r	        knee_angle_r	       ankle_angle_r	         mtp_angle_r	       hip_flexion_l	     hip_adduction_l	      hip_rotation_l	        knee_angle_l	       ankle_angle_l	         mtp_angle_l	    lumbar_extension	      lumbar_bending	     lumbar_rotation	 ercspn_r/activation	 intobl_r/activation	 extobl_r/activation	    abd_r/activation	    add_r/activation	hamstrings_r/activation	bifemsh_r/activation	glut_max_r/activation	iliopsoas_r/activation	rect_fem_r/activation	  vasti_r/activation	gastroc_r/activation	 soleus_r/activation	tib_ant_r/activation	 ercspn_l/activation	 intobl_l/activation	 extobl_l/activation	    abd_l/activation	    add_l/activation	hamstrings_l/activation	bifemsh_l/activation	glut_max_l/activation	iliopsoas_l/activation	rect_fem_l/activation	  vasti_l/activation	gastroc_l/activation	 soleus_l/activation	tib_ant_l/activation	
          1.19220584	          0.67355669	          4.00118465	          8.86111681	          1.47833524	          0.98904455	         -0.02597202	         27.11923259	         -8.70110857	        -18.63067887	        -11.57135620	          0.68508221	          0.15366440	        -17.24606705	          3.98051131	        -11.53483774	        -11.42316566	         10.15256866	         29.16339191	        -13.69996286	         -2.30758305	         -1.80067952	          0.06289457	          0.12715825	          0.01000358	          0.01436905	          0.01578440	          0.05705465	          0.15089504	          0.02064019	          0.23685214	          0.05136011	          0.04910892	          0.04508667	          0.01256244	          0.27355664	          0.02014623	          0.01000109	          0.04030322	          0.07350909	          0.01000013	          0.03037099	          0.01759985	          0.02474964	          0.17187429	          0.04164353	          0.02113611	          0.56021675	          0.35116245	          0.03149934	
          1.20412790	          0.74196580	          3.70833348	          9.32885442	          1.49796847	          0.98822393	         -0.02586255	         26.37001804	         -8.25691243	        -17.36434057	        -12.50553483	          0.63726564	          0.17309796	        -17.74597504	          3.12633109	        -11.14757494	        -12.49750144	          8.69939009	         31.68345673	        -13.25484867	         -1.74552760	         -1.79132335	          0.05246897	          0.14528140	          0.07762385	          0.01198719	          0.01722311	          0.04759708	          0.12588265	          0.01721882	          0.34427778	          0.25622525	          0.04096851	          0.03761296	          0.01048005	          0.28055029	          0.01680675	          0.01000041	          0.16199183	          0.06132400	          0.01000012	          0.04533655	          0.04796754	          0.02064718	          0.14338442	          0.03474056	          0.01763254	          0.52178436	          0.33300373	          0.02627789	
          1.21604996	          0.79699469	          3.28164753	          9.70211641	          1.51735495	          0.98786083	         -0.02548524	         25.93963764	         -7.68120570	        -16.17026137	        -13.72257592	         -0.08502436	          0.19315786	        -17.98188485	          2.11490942	        -10.77446965	        -13.89681200	          7.05199645	         34.28384460	        -12.82960165	         -1.03605279	         -1.72716586	          0.04377156	          0.12119917	          0.08140047	          0.01000018	          0.01436829	          0.03970724	          0.10501613	          0.01436461	          0.32715538	          0.24000318	          0.11708808	          0.03137826	          0.01586110	          0.23404532	          0.01402082	          0.01210235	          0.13513987	          0.05115874	          0.01000009	          0.10480526	          0.08498131	          0.01722476	          0.17927930	          0.02898185	          0.01470972	          0.49455376	          0.31832681	          0.02192198	
          1.22797202	          0.83104140	          2.69543903	          9.97555652	          1.53635347	          0.98793205	         -0.02477113	         25.73611190	         -6.91942653	        -15.04120874	        -14.99626705	         -1.62557121	          0.18890832	        -17.82669456	          0.91057296	        -10.39634094	        -15.82858526	          5.24298345	         36.93817739	        -12.43593451	         -0.15674979	         -1.59387006	          0.03651589	          0.10110881	          0.06790731	          0.03854939	          0.01198704	          0.03312531	          0.08760850	          0.02822382	          0.27292498	          0.20021946	          0.09779046	          0.02617695	          0.01323199	          0.19837516	          0.01169672	          0.01009651	          0.11273867	          0.04267849	          0.01000004	          0.10482065	          0.17232009	          0.01436957	          0.23163835	          0.02417772	          0.01227140	          0.42154578	          0.26555987	          0.01828811	
          1.23989407	          0.84495442	          2.06674428	         10.14901191	          1.55491355	          0.98832543	         -0.02374110	         25.71938769	         -6.10649281	        -13.95684550	        -16.52027424	         -2.98254165	          0.13519169	        -17.18499310	         -0.37460324	         -9.97893271	        -18.51141489	          3.25552634	         39.58068139	        -12.10072340	          0.76023021	         -1.40164133	          0.03046342	          0.08434868	          0.05665078	          0.06905802	          0.01000026	          0.05784269	          0.12203266	          0.05272489	          0.22768401	          0.16703040	          0.08158038	          0.02183790	          0.01103870	          0.18640257	          0.01067646	          0.02207276	          0.09405074	          0.03560396	          0.01000008	          0.08887462	          0.37347863	          0.01198765	          0.29122839	          0.02016994	          0.01023727	          0.35166886	          0.22153972	          0.01525661	
          1.25181613	          0.83918707	          1.50206322	         10.23080968	          1.57292018	          0.98891743	         -0.02243853	         25.88460971	         -5.40099346	        -13.11568108	        -18.47704789	         -3.29644544	          0.19753062	        -15.95910924	         -1.63618674	         -9.42596789	        -22.14734878	          1.07625518	         41.96775797	        -11.85148702	          1.59359554	         -1.16199405	          0.02541432	          0.07036677	          0.04726017	          0.15553616	          0.08906491	          0.05057162	          0.11246418	          0.04398621	          0.18994234	          0.13934289	          0.06805734	          0.04866958	          0.04911172	          0.15550385	          0.10500706	          0.01841460	          0.07846059	          0.02970213	          0.01000014	          0.07414249	          0.32854926	          0.01000056	          0.29521487	          0.01682651	          0.00999999	          0.29337498	          0.18481651	          0.03502339	
          1.26373819	          0.80215437	          1.03371292	         10.22682975	          1.59035872	          0.98962684	         -0.02090476	         26.11592523	         -4.85889545	        -12.72462914	        -20.60363894	         -2.78342928	          0.67438899	        -14.13440445	         -2.80516931	         -8.61664385	        -26.78952130	         -0.77076395	         42.62488141	        -11.66407903	          2.29523104	         -0.88515687	          0.02120276	          0.05870254	          0.03942618	          0.14511146	          0.14386794	          0.04218938	          0.09382202	          0.18473695	          0.15845684	          0.11624497	          0.06091556	          0.05604157	          0.09142325	          0.12972699	          0.24253314	          0.03939783	          0.06545472	          0.02477860	          0.03115440	          0.06185237	          0.27408779	          0.01000008	          0.24627984	          0.01403859	          0.01000002	          0.24474410	          0.15418067	          0.12833856	
          1.27566025	          0.72690917	          0.59213234	         10.17406608	          1.60729878	          0.99040332	         -0.01917885	         26.26203671	         -4.36845506	        -12.76856433	        -22.52520921	         -1.84113744	          1.59351022	        -11.78939364	         -3.90004374	         -7.54622899	        -32.23225593	         -2.13414774	         40.96992450	        -11.48452235	          2.92723738	         -0.59069656	          0.03271613	          0.04897182	          0.03289078	          0.12114378	          0.12002388	          0.05599032	          0.07827015	          0.29912952	          0.13219050	          0.09697584	          0.08914774	          0.05940438	          0.07626905	          0.10822301	          0.26448694	          0.07012165	          0.05460475	          0.02067121	          0.06910963	          0.05159951	          0.22865407	          0.01000007	          0.20545585	          0.16061037	          0.01198696	          0.20417445	          0.12862314	          0.22733555	
          1.28758231	          0.60730102	          0.15357884	         10.10765928	          1.62380681	          0.99122418	         -0.01736906	         26.23351885	         -3.86466635	        -13.03570752	        -24.02227168	         -0.78178172	          2.70647698	         -9.13268837	         -4.88045412	         -6.28069971	        -37.92264659	         -3.34617116	         37.61064348	        -11.27813605	          3.51580405	         -0.29658024	          0.02729384	          0.04085410	          0.02743871	          0.10106443	          0.10012880	          0.05997472	          0.06529627	          0.33628199	          0.11027815	          0.08090084	          0.11912833	          0.04955779	          0.09579949	          0.09028361	          0.27866643	          0.05849854	          0.04555330	          0.01724468	          0.08316657	          0.04304621	          0.19075171	          0.01000005	          0.17516535	          0.13398713	          0.01000002	          0.17032977	          0.10730212	          0.21102838	
          1.29950437	          0.44232070	         -0.30189607	         10.04704548	          1.63991358	          0.99211704	         -0.01557220	         26.02918505	         -3.32377393	        -13.44106926	        -25.07173452	          0.25487116	          3.87468753	         -6.31144262	         -5.74728961	         -4.97735510	        -43.47007446	         -4.87908554	         33.50080921	        -11.02690010	          4.09189182	         -0.01481559	          0.04212222	          0.03408201	          0.02289040	          0.08688062	          0.10008470	          0.07185431	          0.05447297	          0.34131573	          0.09199807	          0.06749048	          0.13511489	          0.04201884	          0.10965752	          0.07531792	          0.26457602	          0.04880174	          0.03800227	          0.01438615	          0.12218622	          0.03591072	          0.23956197	          0.01000004	          0.18059396	          0.11177701	          0.01000001	          0.14209532	          0.08951534	          0.19946090	
          1.31142642	          0.24059352	         -0.74849809	          9.97121902	          1.65561946	          0.99314381	         -0.01387860	         25.69153933	         -2.77164531	        -13.90952250	        -25.76070797	          1.22588257	          5.01870062	         -3.43250353	         -6.42600248	         -3.67580770	        -48.63289180	         -6.78041134	         29.05669678	        -10.74145601	          4.64306509	          0.26857530	          0.05486840	          0.02843248	          0.01909603	          0.08754226	          0.10410865	          0.07756861	          0.04544371	          0.31079662	          0.07674816	          0.05630309	          0.14720303	          0.03505479	          0.11987588	          0.06283300	          0.24010835	          0.04071234	          0.03170292	          0.01200145	          0.14383190	          0.02995805	          0.25889250	          0.01000004	          0.17363770	          0.18591713	          0.01000000	          0.11854114	          0.07467698	          0.16639758	
